name processed_emg_signals
nRows=73
nColumns=7
 
endheader
time	LGLTMED	LRF	LADDLONG	LST	LTA	LGM
1.852	0.0251453476329441	0.0289494738891413	0.0249236101640346	0.0623744945044944	0.492987205677418	0.0656023497626745
1.853	0.0252058104178084	0.0289055628225615	0.0249026555423952	0.0630012604522139	0.4972914410651287	0.0653302906408403
1.854	0.0252685412070747	0.0288621568280925	0.0248839652973365	0.0636329720347103	0.5014643276054987	0.0650387614452543
1.855	0.0253334619386861	0.0288192582548161	0.0248675462237626	0.0642693470700485	0.5055036445401507	0.0647285309042911
1.856	0.0254004938169177	0.0287768692340197	0.0248534031822824	0.0649100825924501	0.5094072956093909	0.0644003794428717
1.857	0.0254695573951193	0.0287349917169133	0.0248415390631287	0.0655548547747397	0.5131733110691601	0.0640550979493249
1.858	0.0255405726576147	0.0286936275137618	0.0248319547542431	0.0662033189031154	0.5167998495455611	0.063693486543274
1.859	0.0256134591006274	0.0286527783342096	0.0248246491136	0.0668551094051379	0.5202851997264448	0.0633163533463752
1.86	0.0256881358121362	0.0286124458284795	0.0248196189458965	0.0675098399316877	0.5236277818903945	0.0629245132578692
1.861	0.02576452155046	0.0285726316291008	0.0248168589835943	0.0681671034935931	0.5268261492745564	0.0625187867369363
1.862	0.0258425348214747	0.0285333373927211	0.0248163618723214	0.0688264726533491	0.5298789892835909	0.0620999985939274
1.863	0.0259220939542371	0.0284945648415416	0.024818118160574	0.0694874997723728	0.5327851245425551	0.0616689767925996
1.864	0.0260031171748129	0.0284563158037401	0.0248221162936812	0.070149717314041	0.5355435137964282	0.0612265512653364
1.865	0.0260855226780469	0.0284185922523142	0.0248283426119498	0.070812638202752	0.5381532526590221	0.0607735527431955
1.866	0.0261692286969726	0.0283813963416931	0.0248367813529124	0.0714757562390656	0.5406135742138835	0.0603108116024205
1.867	0.0262541535696101	0.0283447304414904	0.0248474146576112	0.0721385465709014	0.5429238494696976	0.0598391567288722
1.868	0.0263402158029157	0.0283085971667834	0.0248602225807823	0.0728004662205108	0.54508358767215	0.0593594144017408
1.869	0.0264273341336707	0.0282729994044094	0.0248751831048261	0.0734609546668212	0.5470924364733238	0.0588724071978724
1.87	0.0265154275861532	0.0282379403348839	0.0248922721574005	0.0741194344824756	0.5489501819586671	0.0583789529179525
1.871	0.0266044155264131	0.0282034234497365	0.0249114636324885	0.0747753120247916	0.5506567485307677	0.0578798635358551
1.872	0.0266942177130124	0.0281694525642535	0.0249327294147487	0.0754279781796244	0.5522121986487493	0.0573759441723301
1.873	0.0267847543440938	0.0281360318258006	0.0249560394068906	0.0760768091570412	0.5536167324219499	0.0568679920942173
1.874	0.0268759461007386	0.0281031657179747	0.0249813615598397	0.0767211673374304	0.5548706870568175	0.0563567957402571
1.875	0.0269677141866713	0.0280708590609506	0.0250086619054588	0.0773604021665618	0.5559745361561322	0.0558431337745529
1.8760000000000001	0.0270599803643969	0.0280391170084055	0.0250379045916162	0.0779938510978809	0.5569288888698974	0.0553277741686063
1.877	0.0271526669880221	0.0280079450413502	0.0250690519194292	0.0786208405802205	0.5577344888973814	0.0548114733128247
1.8780000000000001	0.0272456970329989	0.0279773489592584	0.025102064382566	0.0792406870888715	0.558392213340091	0.0542949751583324
1.879	0.0273389941230681	0.027947334868808	0.025136900708394	0.0798526981978911	0.5589030714058678	0.0537790103898198
1.8800000000000001	0.0274324825546066	0.0279179091705885	0.0251735179008911	0.0804561736912603	0.5592682029648639	0.0532642956301543
1.881	0.027526087318636	0.0278890785441077	0.0252118712850282	0.0810504067103236	0.5594888769587929	0.0527515326773198
1.8820000000000001	0.0276197341206236	0.0278608499314295	0.0252519145524879	0.0816346849347643	0.5595664896652993	0.0522414077742752
1.883	0.0277133493982616	0.0278332305197348	0.0252935998084617	0.0822082917941226	0.5595025628195692	0.051734590912262
1.8840000000000001	0.0278068603373851	0.0278062277231159	0.0253368776193765	0.082770507706744	0.5592987415950139	0.0512317351680522
1.885	0.0279001948862043	0.0277798491639281	0.0253816970614321	0.0833206113427886	0.558956792444171	0.0507334760756137
1.8860000000000001	0.0279932817680347	0.0277541026539177	0.0254280057699071	0.0838578809078009	0.5584786007998808	0.0502404310325964
1.887	0.0280860504926564	0.0277289961754503	0.0254757499892313	0.0843815954430582	0.5578661686354432	0.0497531987419056
1.8880000000000001	0.0281784313664801	0.0277045378630127	0.0255248746238787	0.0848910361387411	0.557121611881587	0.0492723586885086
1.889	0.0282703555016385	0.0276807359852806	0.0255753232901462	0.0853854876556772	0.5562471576974563	0.048798470651498
1.8900000000000001	0.0283617548240874	0.0276575989279839	0.0256270383688546	0.0858642394512459	0.5552451415931081	0.0483320742512762
1.891	0.0284525620808538	0.0276351351778159	0.025679961059031	0.0863265871047383	0.5541180044019097	0.0478736885317008
1.8920000000000001	0.028542710846435	0.0276133533077003	0.0257340314325753	0.0867718336373264	0.5528682891026704	0.0474238115769206
1.893	0.0286321355284072	0.0275922619636908	0.0257891884899765	0.0871992908215389	0.55149863749301	0.0469829201626535
1.8940000000000001	0.0287207713722614	0.0275718698537726	0.0258453702170327	0.0876082804751319	0.5500117867168364	0.0465514694417346
1.895	0.0288085544654958	0.0275521857387676	0.0259025136426488	0.0879981357341785	0.5484105656494868	0.0461298926637923
1.8960000000000001	0.0288954217410034	0.0275332184254807	0.0259605548976943	0.0883682023002739	0.546697891144323	0.0457186009288831
1.897	0.028981310979811	0.0275149767621255	0.0260194292749525	0.0887178396568853	0.5448767641445087	0.0453179829749398
1.8980000000000001	0.0290661608131875	0.0274974696359807	0.0260790712901754	0.089046422250258	0.5429502656638514	0.0449284049986782
1.899	0.0291499107241332	0.0274807059732183	0.0261394147442635	0.0893533406306437	0.5409215526411691	0.0445502105096369
1.9000000000000001	0.0292325010482268	0.0274646947407605	0.026200392786539	0.089638002550222	0.5387938536735399	0.0441837202168824
1.901	0.0293138729737699	0.0274494449500257	0.0262619379791675	0.0898998340145425	0.5365704646343292	0.0438292319479444
1.9020000000000001	0.0293939685411921	0.0274349656623726	0.0263239823626787	0.0901382802849064	0.5342547441821042	0.0434870205994796
1.903	0.0294727306417105	0.0274212659959604	0.0263864575226759	0.0903528068296144	0.5318501091665898	0.0431573381191647
1.9040000000000001	0.0295501030152879	0.0274083551337395	0.0264492946577529	0.0905429002224392	0.529360029938067	0.0428404135183494
1.905	0.0296260302480449	0.0273962423321875	0.026512424648753	0.0907080689871426	0.5267880255669383	0.0425364529149404
1.9060000000000001	0.0297004577692995	0.0273849369304414	0.0265757781295094	0.0908478443873809	0.5241376589804305	0.0422456396060429
1.907	0.0297733318485032	0.0273744483595209	0.0266392855591783	0.0909617811618678	0.5214125320235533	0.0419681341698072
1.9080000000000001	0.0298445995923286	0.0273647861513553	0.0267028772962739	0.0910494582051368	0.5186162804514299	0.0417040745959495
1.909	0.0299142089421682	0.0273559599474306	0.026766483674505	0.0911104791946744	0.5157525688601192	0.041453576444338
1.9100000000000001	0.02998210867232	0.0273479795068726	0.0268300350803923	0.0911444731653025	0.5128250855628249	0.0412167330309403
1.911	0.0300482483891436	0.027340854713871	0.0268934620326926	0.0911510950317265	0.509837537418064	0.0409936156404217
1.9120000000000001	0.0301125785314788	0.0273345955843993	0.026956695263543	0.0911300260601636	0.5067936446157371	0.0407842737645834
1.913	0.0301750503726017	0.0273292122722019	0.0270196658012375	0.0910809742900858	0.5036971354264308	0.0405887353658963
1.9140000000000001	0.0302356160240364	0.0273247150740946	0.0270823050545125	0.091003674907419	0.5005517409184926	0.0404070071652751
1.915	0.0302942284414752	0.0273211144345751	0.0271445448981857	0.0908978905707861	0.4973611896467165	0.0402390749533288
1.9160000000000001	0.030350841433102	0.0273184209497632	0.0272063177600024	0.0907634116928278	0.4941292023158978	0.0400849039242171
1.917	0.0304054096705898	0.0273166453706636	0.0272675567085262	0.0906000566787803	0.4908594864225428	0.0399444390312853
1.9180000000000001	0.0304578887030243	0.0273157986056827	0.0273281955418783	0.0904076721247571	0.4875557308785208	0.0398176053635606
1.919	0.0305082349740294	0.0273158917223313	0.0273881688772192	0.0901861329782742	0.4842216006215917	0.0397043085422134
1.92	0.0305564058422416	0.027316935947993	0.0274474122407974	0.0899353426636591	0.480860731219408	0.0396044351359129
1.921	0.0306023596053233	0.0273189426696374	0.0275058621584864	0.0896552331750272	0.4774767234755526	0.0395178530940405
1.922	0.0306460555276119	0.027321923432431	0.0275634562467196	0.0893457651394633	0.4740731380485096	0.0394444121965688
1.923	0.0306874538714729	0.0273258899371534	0.0276201333037589	0.0890069278527912	0.470653490096792	0.0393839445193989
1.924	0.0307265159324806	0.0273308540363642	0.0276758334012135	0.0886387392902255	0.4672212439654437	0.0393362649140161
